<svg version="1.1" xmlns="http://www.w3.org/2000/svg" xmlns:xlink="http://www.w3.org/1999/xlink" width="1560" height="804"><defs/><g><path fill="none" stroke="#02063B" paint-order="fill stroke markers" d=" M 20 412.4968472077272 L 21 413.01968711859405 L 22 413.54223423366113 L 23 414.06447466872305 L 24 414.5863945477227 L 25 415.1079800031206 L 26 415.6292171762626 L 27 416.15009221774886 L 28 416.6705912878012 L 29 417.19070055663116 L 30 417.71040620480744 L 31 418.2296944236231 L 32 418.74855141546215 L 33 419.26696339416674 L 34 419.78491658540287 L 35 420.30239722702674 L 36 420.8193915694504 L 37 421.3358858760067 L 38 421.85186642331496 L 39 422.3673195016449 L 40 422.8822314152813 L 41 423.3965884828879 L 42 423.91037703787083 L 43 424.42358342874155 L 44 424.93619401948 L 45 425.44819518989664 L 46 425.95957333599415 L 47 426.47031487032945 L 48 426.98040622237414 L 49 427.4898338388754 L 50 427.99858418421616 L 51 428.5066437407744 L 52 429.0139990092826 L 53 429.52063650918643 L 54 430.02654277900274 L 55 430.5317043766774 L 56 431.0361078799424 L 57 431.53973988667246 L 58 432.0425870152412 L 59 432.5446359048766 L 60 433.0458732160161 L 61 433.54628563066086 L 62 434.04585985272985 L 63 434.544582608413 L 64 435.04244064652397 L 65 435.539420738852 L 66 436.0355096805138 L 67 436.530694290304 L 68 437.0249614110456 L 69 437.5182979099395 L 70 438.01069067891353 L 71 438.5021266349705 L 72 438.9925927205362 L 73 439.4820759038058 L 74 439.97056317909085 L 75 440.458041567164 L 76 440.9444981156045 L 77 441.42991989914213 L 78 441.91429402000057 L 79 442.39760760824015 L 80 442.8798478220999 L 81 443.3610018483386 L 82 443.8410569025753 L 83 444.32000022962904 L 84 444.79781910385765 L 85 445.27450082949605 L 86 445.75003274099345 L 87 446.2244022033499 L 88 446.6975966124519 L 89 447.16960339540753 L 90 447.6404100108805 L 91 448.11000394942295 L 92 448.5783727338084 L 93 449.04550391936294 L 94 449.511385094296 L 95 449.97600388002996 L 96 450.43934793152937 L 97 450.9014049376287 L 98 451.3621626213595 L 99 451.8216087402768 L 100 452.27973108678395 L 101 452.73651748845754 L 102 453.1919558083703 L 103 453.64603394541405 L 104 454.09873983462086 L 105 454.55006144748376 L 106 454.99998679227645 L 107 455.4485039143717 L 108 455.8956008965592 L 109 456.341265859362 L 110 456.7854869613523 L 111 457.22825239946616 L 112 457.66955040931686 L 113 458.10936926550755 L 114 458.547697281943 L 115 458.98452281213986 L 116 459.4198342495363 L 117 459.8536200278002 L 118 460.28586862113673 L 119 460.7165685445942 L 120 461.14570835436973 L 121 461.57327664811294 L 122 461.9992620652289 L 123 462.4236532871802 L 124 462.84643903778766 L 125 463.2676080835298 L 126 463.68714923384135 L 127 464.1050513414107 L 128 464.5213033024758 L 129 464.9358940571198 L 130 465.3488125895642 L 131 465.76004792846186 L 132 466.1695891471886 L 133 466.5774253641335 L 134 466.9835457429878 L 135 467.38793949303306 L 136 467.79059586942776 L 137 468.1915041734929 L 138 468.59065375299605 L 139 468.9880340024347 L 140 469.3836343633178 L 141 469.77744432444626 L 142 470.1694534221926 L 143 470.5596512407784 L 144 470.94802741255177 L 145 471.33457161826203 L 146 471.71927358733456 L 147 472.10212309814335 L 148 472.4831099782826 L 149 472.8622241048371 L 150 473.2394554046511 L 151 473.61479385459626 L 152 473.98822948183744 L 153 474.3597523640981 L 154 474.7293526299238 L 155 475.0970204589446 L 156 475.46274608213554 L 157 475.82651978207696 L 158 476.18833189321197 L 159 476.54817280210375 L 160 476.9060329476908 L 161 477.26190282154084 L 162 477.61577296810384 L 163 477.96763398496284 L 164 478.31747652308394 L 165 478.6652912870648 L 166 479.0110690353815 L 167 479.3548005806342 L 168 479.6964767897911 L 169 480.0360885844312 L 170 480.37362694098545 L 171 480.7090828909766 L 172 481.0424475212576 L 173 481.373711974248 L 174 481.70286744816985 L 175 482.0299051972811 L 176 482.3548165321083 L 177 482.6775928196772 L 178 482.9982254837425 L 179 483.31670600501525 L 180 483.63302592138973 L 181 483.9471768281677 L 182 484.25915037828236 L 183 484.5689382825197 L 184 484.8765323097387 L 185 485.18192428709045 L 186 485.48510610023493 L 187 485.7860696935566 L 188 486.0848070703788 L 189 486.38131029317583 L 190 486.6755714837841 L 191 486.96758282361134 L 192 487.25733655384425 L 193 487.54482497565505 L 194 487.8300404504055 L 195 488.11297539985014 L 196 488.3936223063378 L 197 488.6719737130111 L 198 488.9480222240046 L 199 489.22176050464145 L 200 489.49318128162804 L 201 489.76227734324755 L 202 490.02904153955143 L 203 490.2934667825492 L 204 490.5555460463972 L 205 490.8152723675847 L 206 491.0726388451195 L 207 491.3276386407109 L 208 491.5802649789516 L 209 491.8305111474976 L 210 492.0783704972465 L 211 492.3238364425144 L 212 492.5669024612107 L 213 492.80756209501146 L 214 493.04580894953097 L 215 493.2816366944916 L 216 493.5150390638922 L 217 493.7460098561742 L 218 493.97454293438693 L 219 494.2006322263502 L 220 494.42427172481587 L 221 494.6454554876273 L 222 494.86417763787756 L 223 495.0804323640653 L 224 495.29421392024915 L 225 495.50551662620046 L 226 495.71433486755444 L 227 495.92066309595896 L 228 496.12449582922216 L 229 496.32582765145816 L 230 496.52465321323086 L 231 496.7209672316962 L 232 496.9147644907423 L 233 497.1060398411283 L 234 497.29478820062104 L 235 497.48100455413015 L 236 497.6646839538413 L 237 497.84582151934757 L 238 498.0244124377793 L 239 498.20045196393176 L 240 498.3739354203915 L 241 498.54485819766023 L 242 498.7132157542777 L 243 498.8790036169423 L 244 499.04221738062967 L 245 499.2028527087098 L 246 499.36090533306265 L 247 499.5163710541909 L 248 499.66924574133225 L 249 499.8195253325685 L 250 499.96720583493396 L 251 500.1122833245213 L 252 500.2547539465859 L 253 500.3946139156483 L 254 500.5318595155946 L 255 500.6664870997755 L 256 500.79849309110296 L 257 500.9278739821453 L 258 501.05462633522023 L 259 501.1787467824867 L 260 501.3002320260338 L 261 501.41907883796875 L 262 501.5352840605024 L 263 501.6488446060335 L 264 501.75975745723025 L 265 501.868019667111 L 266 501.9736283591222 L 267 502.0765807272148 L 268 502.17687403591907 L 269 502.27450562041713 L 270 502.3694728866138 L 271 502.46177331120526 L 272 502.5514044417467 L 273 502.6383638967168 L 274 502.72264936558145 L 275 502.80425860885504 L 276 502.8831894581598 L 277 502.95943981628375 L 278 503.03300765723594 L 279 503.10389102630086 L 280 503.17208804008993 L 281 503.23759688659163 L 282 503.30041582521983 L 283 503.3605431868599 L 284 503.41797737391295 L 285 503.47271686033855 L 286 503.52476019169507 L 287 503.57410598517833 L 288 503.6207529296585 L 289 503.6646997857148 L 290 503.7059453856684 L 291 503.74448863361357 L 292 503.7803285054467 L 293 503.8134640488936 L 294 503.8438943835347 L 295 503.87161870082855 L 296 503.89663626413324 L 297 503.9189464087258 L 298 503.9385485418204 L 299 503.95544214258337 L 300 503.9696267621477 L 301 503.98110202362454 L 302 503.98986762211325 L 303 503.99592332470985 L 304 503.9992689705128 L 305 503.9999044706274 L 306 503.9978298081684 L 307 503.99304503825994 L 308 503.9855502880346 L 309 503.97534575662974 L 310 503.9624317151822 L 311 503.9468085068214 L 312 503.9284765466597 L 313 503.90743632178186 L 314 503.8836883912318 L 315 503.85723338599786 L 316 503.8280720089961 L 317 503.79620503505146 L 318 503.76163331087724 L 319 503.7243577550528 L 320 503.68437935799864 L 321 503.64169918195074 L 322 503.59631836093183 L 323 503.5482381007216 L 324 503.49745967882427 L 325 503.4439844444351 L 326 503.3878138184042 L 327 503.3289492931989 L 328 503.2673924328642 L 329 503.20314487298094 L 330 503.1362083206227 L 331 503.06658455431005 L 332 502.9942754239637 L 333 502.91928285085504 L 334 502.84160882755515 L 335 502.76125541788196 L 336 502.6782247568454 L 337 502.5925190505905 L 338 502.504140576339 L 339 502.41309168232874 L 340 502.31937478775126 L 341 502.2229923826875 L 342 502.1239470280417 L 343 502.0222413554733 L 344 501.917878067327 L 345 501.8108599365612 L 346 501.70118980667394 L 347 501.5888705916275 L 348 501.47390527577113 L 349 501.3562969137615 L 350 501.23604863048195 L 351 501.1131636209587 L 352 500.9876451502769 L 353 500.85949655349316 L 354 500.7287212355472 L 355 500.59532267117146 L 356 500.4593044047987 L 357 500.3206700504676 L 358 500.1794232917272 L 359 500.03556788153855 L 360 499.8891076421755 L 361 499.7400464651225 L 362 499.5883883109717 L 363 499.4341372093177 L 364 499.27729725865026 L 365 499.11787262624546 L 366 498.9558675480549 L 367 498.7912863285936 L 368 498.6241333408249 L 369 498.454413026045 L 370 498.2821298937643 L 371 498.10728852158815 L 372 497.9298935550948 L 373 497.7499497077122 L 374 497.56746176059266 L 375 497.38243456248586 L 376 497.19487302961 L 377 497.00478214552123 L 378 496.81216696098113 L 379 496.6170325938225 L 380 496.41938422881367 L 381 496.2192271175202 L 382 496.01656657816585 L 383 495.8114079954911 L 384 495.60375682061 L 385 495.3936185708653 L 386 495.18099882968215 L 387 494.9659032464194 L 388 494.74833753621954 L 389 494.5283074798572 L 390 494.305818923585 L 391 494.08087777897873 L 392 493.85349002278 L 393 493.6236616967375 L 394 493.3913989074464 L 395 493.1567078261861 L 396 492.9195946887566 L 397 492.6800657953122 L 398 492.4381275101946 L 399 492.19378626176353 L 400 491.9470485422263 L 401 491.69792090746466 L 402 491.44640997686133 L 403 491.19252243312366 L 404 490.9362650221061 L 405 490.67764455263125 L 406 490.4166678963086 L 407 490.1533419873522 L 408 489.8876738223962 L 409 489.6196704603092 L 410 489.3493390220065 L 411 489.076686690261 L 412 488.80172070951227 L 413 488.5244483856741 L 414 488.2448770859404 L 415 487.9630142385894 L 416 487.6788673327864 L 417 487.39244391838463 L 418 487.10375160572477 L 419 486.8127980654325 L 420 486.5195910282152 L 421 486.2241382846559 L 422 485.9264476850068 L 423 485.6265271389804 L 424 485.32438461553943 L 425 485.0200281426852 L 426 484.713465807244 L 427 484.40470575465264 L 428 484.09375618874174 L 429 483.78062537151783 L 430 483.46532162294375 L 431 483.1478533207178 L 432 482.8282289000508 L 433 482.5064568534425 L 434 482.1825457304552 L 435 481.8565041374873 L 436 481.52834073754417 L 437 481.19806425000814 L 438 480.8656834504068 L 439 480.53120717017975 L 440 480.1946442964442 L 441 479.85600377175854 L 442 479.51529459388485 L 443 479.17252581554993 L 444 478.8277065442046 L 445 478.4808459417817 L 446 478.1319532244529 L 447 477.7810376623836 L 448 477.42810857948666 L 449 477.0731753531747 L 450 476.71624741411097 L 451 476.35733424595867 L 452 475.99644538512894 L 453 475.6335904205278 L 454 475.26877899330094 L 455 474.9020207965778 L 456 474.5333255752139 L 457 474.1627031255322 L 458 473.7901632950622 L 459 473.4157159822791 L 460 473.03937113634015 L 461 472.6611387568205 L 462 472.2810288934477 L 463 471.8990516458343 L 464 471.5152171632098 L 465 471.129535644151 L 466 470.7420173363107 L 467 470.35267253614586 L 468 469.96151158864365 L 469 469.5685448870467 L 470 469.173782872577 L 471 468.77723603415853 L 472 468.37891490813837 L 473 467.97883007800687 L 474 467.5769921741166 L 475 467.17341187339946 L 476 466.7680998990835 L 477 466.3610670204075 L 478 465.9523240523355 L 479 465.5418818552686 L 480 465.1297513347571 L 481 464.71594344121036 L 482 464.30046916960606 L 483 463.8833395591978 L 484 463.4645656932221 L 485 463.04415869860355 L 486 462.62212974565966 L 487 462.1984900478035 L 488 461.7732508612462 L 489 461.34642348469765 L 490 460.9180192590662 L 491 460.48804956715776 L 492 460.05652583337286 L 493 459.62345952340326 L 494 459.1888621439275 L 495 458.75274524230497 L 496 458.3151204062691 L 497 457.87599926361946 L 498 457.43539348191297 L 499 456.99331476815377 L 500 456.549774868482 L 501 456.10478556786217 L 502 455.65835868976944 L 503 455.21050609587587 L 504 454.7612396857351 L 505 454.31057139646634 L 506 453.858513202437 L 507 453.4050771149445 L 508 452.9502751818974 L 509 452.4941194874949 L 510 452.0366221519063 L 511 451.5777953309483 L 512 451.1176512157625 L 513 450.65620203249136 L 514 450.19346004195336 L 515 449.72943753931696 L 516 449.2641468537744 L 517 448.79760034821373 L 518 448.3298104188904 L 519 447.8607894950981 L 520 447.3905500388382 L 521 446.91910454448885 L 522 446.4464655384728 L 523 445.9726455789249 L 524 445.49765725535815 L 525 445.0215131883292 L 526 444.54422602910313 L 527 444.0658084593173 L 528 443.5862731906442 L 529 443.1056329644542 L 530 442.6239005514762 L 531 442.1410887514592 L 532 441.65721039283153 L 533 441.17227833236024 L 534 440.68630545480966 L 535 440.19930467259877 L 536 439.71128892545823 L 537 439.2222711800866 L 538 438.73226442980575 L 539 438.2412816942157 L 540 437.74933601884857 L 541 437.2564404748221 L 542 436.76260815849224 L 543 436.26785219110525 L 544 435.77218571844895 L 545 435.2756219105035 L 546 434.7781739610916 L 547 434.2798550875277 L 548 433.78067853026704 L 549 433.2806575525536 L 550 432.7798054400677 L 551 432.2781355005735 L 552 431.7756610635647 L 553 431.27239547991087 L 554 430.76835212150235 L 555 430.2635443808953 L 556 429.75798567095575 L 557 429.251689424503 L 558 428.744669093953 L 559 428.2369381509608 L 560 427.72851008606244 L 561 427.2193984083169 L 562 426.7096166449468 L 563 426.19917834097896 L 564 425.6880970588849 L 565 425.1763863782201 L 566 424.66405989526334 L 567 424.15113122265535 L 568 423.6376139890373 L 569 423.1235218386884 L 570 422.6088684311637 L 571 422.0936674409311 L 572 421.57793255700756 L 573 421.061677482596 L 574 420.54491593472085 L 575 420.0276616438636 L 576 419.5099283535982 L 577 418.99172982022554 L 578 418.4730798124083 L 579 417.9539921108048 L 580 417.43448050770314 L 581 416.9145588066545 L 582 416.39424082210644 L 583 415.873540379036 L 584 415.35247131258205 L 585 414.831047467678 L 586 414.30928269868383 L 587 413.7871908690178 L 588 413.2647858507885 L 589 412.74208152442577 L 590 412.2190917783123 L 591 411.69583050841436 L 592 411.1723116179128 L 593 410.6485490168333 L 594 410.1245566216772 L 595 409.60034835505144 L 596 409.0759381452987 L 597 408.5513399261274 L 598 408.02656763624134 L 599 407.5016352189695 L 600 406.97655662189544 L 601 406.4513457964867 L 602 405.9260166977242 L 603 405.4005832837315 L 604 404.8750595154038 L 605 404.3494593560369 L 606 403.8237967709565 L 607 403.2980857271469 L 608 402.7723401928799 L 609 402.2465741373438 L 610 401.7208015302723 L 611 401.19503634157275 L 612 400.66929254095584 L 613 400.14358409756375 L 614 399.6179249795992 L 615 399.0923291539544 L 616 398.5668105858398 L 617 398.04138323841323 L 618 397.51606107240855 L 619 396.9908580457651 L 620 396.4657881132566 L 621 395.9408652261205 L 622 395.41610333168705 L 623 394.891516373009 L 624 394.36711828849093 L 625 393.8429230115192 L 626 393.31894447009125 L 627 392.79519658644597 L 628 392.27169327669355 L 629 391.7484484504459 L 630 391.2254760104467 L 631 390.7027898522026 L 632 390.1804038636135 L 633 389.6583319246036 L 634 389.13658790675294 L 635 388.61518567292853 L 636 388.09413907691606 L 637 387.57346196305184 L 638 387.053168165855 L 639 386.5332715096599 L 640 386.01378580824866 L 641 385.49472486448417 L 642 384.9761024699435 L 643 384.45793240455146 L 644 383.94022843621417 L 645 383.42300432045363 L 646 382.90627380004184 L 647 382.3900506046359 L 648 381.8743484504134 L 649 381.3591810397073 L 650 380.8445620606428 L 651 380.3305051867726 L 652 379.8170240767145 L 653 379.3041323737881 L 654 378.7918437056521 L 655 378.2801716839426 L 656 377.76912990391116 L 657 377.25873194406375 L 658 376.7489913657997 L 659 376.2399217130518 L 660 375.731536511926 L 661 375.22384927034216 L 662 374.71687347767545 L 663 374.21062260439743 L 664 373.7051101017184 L 665 373.20034940123 L 666 372.69635391454847 L 667 372.1931370329577 L 668 371.6907121270544 L 669 371.1890925463918 L 670 370.6882916191258 L 671 370.18832265166026 L 672 369.68919892829376 L 673 369.1909337108665 L 674 368.693540238408 L 675 368.19703172678527 L 676 367.7014213683517 L 677 367.2067223315965 L 678 366.71294776079486 L 679 366.2201107756588 L 680 365.7282244709882 L 681 365.2373019163234 L 682 364.74735615559746 L 683 364.25840020678993 L 684 363.7704470615807 L 685 363.283509685005 L 686 362.79760101510874 L 687 362.312733962605 L 688 361.8289214105307 L 689 361.3461762139044 L 690 360.864511199385 L 691 360.38393916493027 L 692 359.9044728794576 L 693 359.42612508250437 L 694 358.9489084838891 L 695 358.47283576337446 L 696 357.9979195703297 L 697 357.5241725233951 L 698 357.05160721014636 L 699 356.58023618676003 L 700 356.11007197768043 L 701 355.64112707528625 L 702 355.173413939559 L 703 354.70694499775186 L 704 354.2417326440595 L 705 353.7777892392886 L 706 353.3151271105298 L 707 352.8537585508296 L 708 352.3936958188642 L 709 351.9349511386139 L 710 351.4775366990375 L 711 351.02146465374943 L 712 350.5667471206963 L 713 350.1133961818347 L 714 349.66142388281077 L 715 349.21084223263983 L 716 348.7616632033872 L 717 348.3138987298503 L 718 347.8675607092414 L 719 347.42266100087164 L 720 346.9792114258358 L 721 346.53722376669816 L 722 346.0967097671798 L 723 345.657681131846 L 724 345.2201495257958 L 725 344.7841265743516 L 726 344.3496238627506 L 727 343.91665293583685 L 728 343.4852252977544 L 729 343.05535241164193 L 730 342.62704569932777 L 731 342.2003165410267 L 732 341.77517627503755 L 733 341.35163619744185 L 734 340.9297075618037 L 735 340.5094015788709 L 736 340.0907294162768 L 737 339.673702198244 L 738 339.25833100528814 L 739 338.8446268739242 L 740 338.4326007963727 L 741 338.02226372026814 L 742 337.61362654836756 L 743 337.20670013826117 L 744 336.80149530208394 L 745 336.39802280622814 L 746 335.9962933710573 L 747 335.5963176706213 L 748 335.19810633237313 L 749 334.801669936886 L 750 334.4070190175726 L 751 334.014164060405 L 752 333.6231155036361 L 753 333.2338837375223 L 754 332.84647910404755 L 755 332.46091189664827 L 756 332.07719235994006 L 757 331.69533068944554 L 758 331.31533703132334 L 759 330.9372214820984 L 760 330.560994088394 L 761 330.18666484666466 L 762 329.81424370293047 L 763 329.44374055251285 L 764 329.07516523977176 L 765 328.70852755784404 L 766 328.3438372483831 L 767 327.9811040013003 L 768 327.6203374545073 L 769 327.2615471936601 L 770 326.90474275190417 L 771 326.54993360962146 L 772 326.19712919417816 L 773 325.84633887967453 L 774 325.49757198669556 L 775 325.15083778206343 L 776 324.8061454785913 L 777 324.46350423483864 L 778 324.1229231548675 L 779 323.78441128800125 L 780 323.4479776285833 L 781 323.11363111573894 L 782 322.78138063313725 L 783 322.4512350087554 L 784 322.123203014644 L 785 321.7972933666937 L 786 321.4735147244042 L 787 321.15187569065375 L 788 320.8323848114706 L 789 320.5150505758062 L 790 320.1998814153091 L 791 319.88688570410164 L 792 319.5760717585569 L 793 319.26744783707795 L 794 318.9610221398783 L 795 318.65680280876427 L 796 318.3547979269183 L 797 318.05501551868446 L 798 317.7574635493551 L 799 317.4621499249595 L 800 317.1690824920531 L 801 316.8782690375099 L 802 316.5897172883149 L 803 316.3034349113592 L 804 316.01942951323605 L 805 315.73770864003876 L 806 315.4582797771602 L 807 315.18115034909425 L 808 314.9063277192379 L 809 314.63381918969606 L 810 314.36363200108747 L 811 314.09577333235234 L 812 313.8302503005614 L 813 313.56706996072694 L 814 313.30623930561535 L 815 313.0477652655615 L 816 312.7916547082841 L 817 312.53791443870387 L 818 312.2865511987621 L 819 312.037571667242 L 820 311.7909824595911 L 821 311.54679012774517 L 822 311.3050011599548 L 823 311.06562198061226 L 824 310.8286589500814 L 825 310.59411836452813 L 826 310.36200645575366 L 827 310.13232939102846 L 828 309.9050932729288 L 829 309.68030413917415 L 830 309.45796796246725 L 831 309.23809065033504 L 832 309.02067804497176 L 833 308.80573592308394 L 834 308.5932699957366 L 835 308.3832859082018 L 836 308.1757892398084 L 837 307.97078550379405 L 838 307.7682801471584 L 839 307.5682785505186 L 840 307.3707860279664 L 841 307.17580782692676 L 842 306.9833491280184 L 843 306.79341504491634 L 844 306.606010624216 L 845 306.4211408452989 L 846 306.23881062020064 L 847 306.0590247934802 L 848 305.8817881420912 L 849 305.7071053752551 L 850 305.534981134336 L 851 305.3654199927175 L 852 305.19842645568076 L 853 305.0340049602852 L 854 304.87215987525036 L 855 304.7128955008401 L 856 304.55621606874803 L 857 304.40212574198523 L 858 304.25062861476965 L 859 304.1017287124171 L 860 303.9554299912349 L 861 303.81173633841587 L 862 303.6706515719359 L 863 303.53217944045184 L 864 303.39632362320236 L 865 303.26308772991 L 866 303.1324753006852 L 867 303.00448980593245 L 868 302.87913464625774 L 869 302.7564131523786 L 870 302.63632858503536 L 871 302.51888413490445 L 872 302.40408292251385 L 873 302.2919279981601 L 874 302.1824223418271 L 875 302.0755688631071 L 876 301.9713704011233 L 877 301.8698297244546 L 878 301.77094953106166 L 879 301.6747324482156 L 880 301.58118103242805 L 881 301.4902977693831 L 882 301.40208507387143 L 883 301.3165452897261 L 884 301.23368068976026 L 885 301.1534934757066 L 886 301.07598577815935 L 887 301.00115965651696 L 888 300.92901709892794 L 889 300.8595600222378 L 890 300.7927902719382 L 891 300.7287096221178 L 892 300.6673197754153 L 893 300.60862236297396 L 894 300.55261894439855 L 895 300.4993110077137 L 896 300.4486999693243 L 897 300.40078717397824 L 898 300.35557389473024 L 899 300.3130613329082 L 900 300.2732506180814 L 901 300.23614280803037 L 902 300.2017388887187 L 903 300.170039774267 L 904 300.1410463069286 L 905 300.114759257067 L 906 300.09117932313563 L 907 300.07030713165915 L 908 300.0521432372168 L 909 300.0366881224277 L 910 300.02394219793814 L 911 300.01390580241036 L 912 300.00657920251393 L 913 300.0019625929184 L 914 300.00005609628823 L 915 300.0008597632795 L 916 300.00437357253855 L 917 300.01059743070266 L 918 300.01953117240237 L 919 300.0311745602659 L 920 300.0455272849257 L 921 300.0625889650262 L 922 300.0823591472344 L 923 300.10483730625174 L 924 300.130022844828 L 925 300.15791509377715 L 926 300.18851331199534 L 927 300.22181668648034 L 928 300.25782433235327 L 929 300.2965352928822 L 930 300.3379485395073 L 931 300.38206297186844 L 932 300.42887741783426 L 933 300.4783906335334 L 934 300.53060130338764 L 935 300.5855080401465 L 936 300.64310938492457 L 937 300.70340380723985 L 938 300.7663897050547 L 939 300.83206540481837 L 940 300.9004291615113 L 941 300.97147915869164 L 942 301.0452135085435 L 943 301.12163025192706 L 944 301.2007273584306 L 945 301.2825027264245 L 946 301.36695418311723 L 947 301.4540794846127 L 948 301.5438763159701 L 949 301.63634229126575 L 950 301.7314749536557 L 951 301.82927177544184 L 952 301.92973015813845 L 953 302.0328474325416 L 954 302.1386208587999 L 955 302.2470476264874 L 956 302.35812485467824 L 957 302.471849592023 L 958 302.58821881682746 L 959 302.70722943713275 L 960 302.82887829079726 L 961 302.9531621455811 L 962 303.08007769923154 L 963 303.2096215795712 L 964 303.3417903445872 L 965 303.476580482523 L 966 303.61398841197126 L 967 303.7540104819697 L 968 303.89664297209737 L 969 304.0418820925738 L 970 304.1897239843599 L 971 304.34016471926014 L 972 304.4932003000272 L 973 304.64882666046805 L 974 304.8070396655519 L 975 304.96783511152034 L 976 305.1312087259987 L 977 305.29715616810984 L 978 305.46567302858944 L 979 305.63675482990294 L 980 305.81039702636485 L 981 305.98659500425913 L 982 306.1653440819623 L 983 306.3466395100672 L 984 306.5304764715097 L 985 306.7168500816966 L 986 306.90575538863504 L 987 307.09718737306457 L 988 307.2911409485903 L 989 307.48761096181784 L 990 307.6865921924906 L 991 307.8880793536284 L 992 308.0920670916677 L 993 308.29854998660403 L 994 308.50752255213615 L 995 308.7189792358115 L 996 308.9329144191738 L 997 309.14932241791274 L 998 309.3681974820144 L 999 309.5895337959145 L 1000 309.8133254786527 L 1001 310.0395665840289 L 1002 310.2682511007611 L 1003 310.49937295264556 L 1004 310.7329259987177 L 1005 310.9689040334155 L 1006 311.20730078674467 L 1007 311.4481099244447 L 1008 311.6913250481574 L 1009 311.9369396955972 L 1010 312.1849473407224 L 1011 312.4353413939088 L 1012 312.6881152021248 L 1013 312.943262049108 L 1014 313.2007751555439 L 1015 313.46064767924594 L 1016 313.7228727153371 L 1017 313.98744329643364 L 1018 314.25435239283 L 1019 314.523592912686 L 1020 314.7951577022145 L 1021 315.06903954587233 L 1022 315.3452311665514 L 1023 315.62372522577243 L 1024 315.9045143238796 L 1025 316.1875910002375 L 1026 316.4729477334291 L 1027 316.7605769414559 L 1028 317.0504709819388 L 1029 317.342622152322 L 1030 317.63702269007683 L 1031 317.9336647729085 L 1032 318.232540518964 L 1033 318.53364198704105 L 1034 318.8369611767995 L 1035 319.14249002897384 L 1036 319.45022042558725 L 1037 319.76014419016735 L 1038 320.07225308796336 L 1039 320.38653882616507 L 1040 320.70299305412306 L 1041 321.0216073635705 L 1042 321.34237328884683 L 1043 321.6652823071225 L 1044 321.99032583862515 L 1045 322.31749524686836 L 1046 322.6467818388803 L 1047 322.9781768654352 L 1048 323.3116715212856 L 1049 323.64725694539635 L 1050 323.98492422118017 L 1051 324.32466437673435 L 1052 324.6664683850794 L 1053 325.0103271643986 L 1054 325.3562315782795 L 1055 325.70417243595676 L 1056 326.0541404925561 L 1057 326.40612644934004 L 1058 326.76012095395504 L 1059 327.11611460068 L 1060 327.4740979306762 L 1061 327.83406143223823 L 1062 328.19599554104735 L 1063 328.5598906404251 L 1064 328.9257370615892 L 1065 329.29352508391014 L 1066 329.66324493516953 L 1067 330.03488679182004 L 1068 330.4084407792459 L 1069 330.78389697202584 L 1070 331.16124539419627 L 1071 331.54047601951675 L 1072 331.9215787717362 L 1073 332.3045435248607 L 1074 332.6893601034224 L 1075 333.07601828275017 L 1076 333.4645077892409 L 1077 333.85481830063276 L 1078 334.24693944627944 L 1079 334.6408608074255 L 1080 335.03657191748346 L 1081 335.4340622623116 L 1082 335.8333212804937 L 1083 336.2343383636193 L 1084 336.6371028565658 L 1085 337.04160405778146 L 1086 337.4478312195697 L 1087 337.85577354837494 L 1088 338.26542020506895 L 1089 338.6767603052393 L 1090 339.08978291947824 L 1091 339.50447707367323 L 1092 339.92083174929854 L 1093 340.3388358837078 L 1094 340.7584783704283 L 1095 341.1797480594559 L 1096 341.60263375755125 L 1097 342.0271242285372 L 1098 342.45320819359745 L 1099 342.88087433157614 L 1100 343.31011127927866 L 1101 343.7409076317737 L 1102 344.1732519426961 L 1103 344.60713272455104 L 1104 345.04253844901933 L 1105 345.47945754726373 L 1106 345.9178784102362 L 1107 346.3577893889864 L 1108 346.79917879497145 L 1109 347.24203490036615 L 1110 347.68634593837464 L 1111 348.13210010354334 L 1112 348.5792855520743 L 1113 349.0278904021401 L 1114 349.47790273419935 L 1115 349.9293105913137 L 1116 350.38210197946523 L 1117 350.83626486787523 L 1118 351.29178718932394 L 1119 351.74865684047114 L 1120 352.2068616821778 L 1121 352.6663895398284 L 1122 353.12722820365457 L 1123 353.5893654290597 L 1124 354.0527889369438 L 1125 354.51748641403026 L 1126 354.98344551319263 L 1127 355.450653853783 L 1128 355.91909902196073 L 1129 356.38876857102235 L 1130 356.85965002173225 L 1131 357.3317308626545 L 1132 357.8049985504848 L 1133 358.27944051038423 L 1134 358.75504413631313 L 1135 359.23179679136604 L 1136 359.7096858081075 L 1137 360.1886984889087 L 1138 360.6688221062849 L 1139 361.15004390323315 L 1140 361.63235109357214 L 1141 362.11573086228077 L 1142 362.60017036583974 L 1143 363.08565673257215 L 1144 363.5721770629857 L 1145 364.0597184301154 L 1146 364.5482678798672 L 1147 365.03781243136183 L 1148 365.5283390772801 L 1149 366.01983478420823 L 1150 366.5122864929843 L 1151 367.00568111904516 L 1152 367.50000555277416 L 1153 367.99524665984933 L 1154 368.49139128159254 L 1155 368.9884262353191 L 1156 369.4863383146879 L 1157 369.98511429005237 L 1158 370.48474090881206 L 1159 370.9852048957647 L 1160 371.486492953459 L 1161 371.9885917625478 L 1162 372.4914879821421 L 1163 372.9951682501656 L 1164 373.49961918370957 L 1165 374.0048273793885 L 1166 374.5107794136962 L 1167 375.0174618433626 L 1168 375.5248612057108 L 1169 376.03296401901486 L 1170 376.5417567828579 L 1171 377.05122597849083 L 1172 377.5613580691919 L 1173 378.07213950062567 L 1174 378.58355670120386 L 1175 379.0955960824456 L 1176 379.6082440393383 L 1177 380.1214869506996 L 1178 380.6353111795391 L 1179 381.14970307342037 L 1180 381.66464896482427 L 1181 382.1801351715116 L 1182 382.696147996887 L 1183 383.21267373036267 L 1184 383.72969864772267 L 1185 384.24720901148766 L 1186 384.76519107127984 L 1187 385.28363106418846 L 1188 385.80251521513514 L 1189 386.32182973724036 L 1190 386.8415608321893 L 1191 387.3616946905989 L 1192 387.8822174923844 L 1193 388.4031154071269 L 1194 388.9243745944405 L 1195 389.4459812043403 L 1196 389.96792137761025 L 1197 390.4901812461714 L 1198 391.01274693345056 L 1199 391.53560455474866 L 1200 392.05874021761 L 1201 392.5821400221913 L 1202 393.1057900616309 L 1203 393.6296764224182 L 1204 394.1537851847637 L 1205 394.67810242296855 L 1206 395.20261420579465 L 1207 395.72730659683475 L 1208 396.2521656548829 L 1209 396.7771774343047 L 1210 397.3023279854079 L 1211 397.8276033548131 L 1212 398.35298958582433 L 1213 398.8784727188002 L 1214 399.4040387915244 L 1215 399.92967383957705 L 1216 400.4553638967054 L 1217 400.9810949951954 L 1218 401.5068531662422 L 1219 402.0326244403218 L 1220 402.55839484756194 L 1221 403.08415041811355 L 1222 403.6098771825216 L 1223 404.1355611720966 L 1224 404.66118841928545 L 1225 405.1867449580429 L 1226 405.7122168242022 L 1227 406.23759005584657 L 1228 406.76285069367987 L 1229 407.28798478139765 L 1230 407.8129783660579 L 1231 408.33781749845184 L 1232 408.8624882334745 L 1233 409.38697663049527 L 1234 409.91126875372834 L 1235 410.43535067260297 L 1236 410.9592084621334 L 1237 411.4828282032894 L 1238 412.00619598336533 L 1239 412.52929789635044 L 1240 413.05212004329826 L 1241 413.5746485326955 L 1242 414.09686948083163 L 1243 414.61876901216743 L 1244 415.14033325970394 L 1245 415.6615483653506 L 1246 416.1824004802938 L 1247 416.7028757653646 L 1248 417.22296039140656 L 1249 417.74264053964305 L 1250 418.26190240204465 L 1251 418.78073218169584 L 1252 419.2991160931616 L 1253 419.81704036285385 L 1254 420.33449122939714 L 1255 420.8514549439946 L 1256 421.36791777079304 L 1257 421.88386598724804 L 1258 422.39928588448845 L 1259 422.9141637676807 L 1260 423.42848595639265 L 1261 423.94223878495717 L 1262 424.4554086028351 L 1263 424.967981774978 L 1264 425.4799446821906 L 1265 425.99128372149227 L 1266 426.5019853064789 L 1267 427.0120358676837 L 1268 427.52142185293764 L 1269 428.03012972772973 L 1270 428.5381459755664 L 1271 429.0454570983309 L 1272 429.5520496166419 L 1273 430.0579100702114 L 1274 430.5630250182026 L 1275 431.06738103958696 L 1276 431.57096473350083 L 1277 432.0737627196015 L 1278 432.5757616384227 L 1279 433.0769481517296 L 1280 433.57730894287306 L 1281 434.0768307171437 L 1282 434.57550020212506 L 1283 435.0733041480461 L 1284 435.57022932813345 L 1285 436.06626253896263 L 1286 436.5613906008094 L 1287 437.05560035799886 L 1288 437.54887867925635 L 1289 438.0412124580553 L 1290 438.53258861296615 L 1291 439.0229940880033 L 1292 439.5124158529727 L 1293 440.0008409038175 L 1294 440.48825626296383 L 1295 440.97464897966563 L 1296 441.4600061303487 L 1297 441.94431481895396 L 1298 442.4275621772804 L 1299 442.9097353653267 L 1300 443.39082157163256 L 1301 443.870808013619 L 1302 444.34968193792815 L 1303 444.8274306207619 L 1304 445.30404136822017 L 1305 445.779501516638 L 1306 446.2537984329223 L 1307 446.726919514887 L 1308 447.19885219158874 L 1309 447.66958392366 L 1310 448.1391022036427 L 1311 448.6073945563207 L 1312 449.07444853905076 L 1313 449.54025174209363 L 1314 450.0047917889435 L 1315 450.46805633665707 L 1316 450.9300330761811 L 1317 451.3907097326799 L 1318 451.8500740658614 L 1319 452.3081138703021 L 1320 452.7648169757716 L 1321 453.2201712475561 L 1322 453.67416458678025 L 1323 454.12678493072946 L 1324 454.5780202531697 L 1325 455.0278585646673 L 1326 455.47628791290765 L 1327 455.9232963830125 L 1328 456.36887209785687 L 1329 456.81300321838415 L 1330 457.2556779439212 L 1331 457.69688451249164 L 1332 458.1366112011283 L 1333 458.5748463261847 L 1334 459.01157824364583 L 1335 459.44679534943697 L 1336 459.8804860797326 L 1337 460.3126389112631 L 1338 460.74324236162147 L 1339 461.1722849895679 L 1340 461.5997553953343 L 1341 462.0256422209266 L 1342 462.4499341504271 L 1343 462.8726199102947 L 1344 463.29368826966476 L 1345 463.71312804064723 L 1346 464.1309280786242 L 1347 464.5470772825458 L 1348 464.9615645952251 L 1349 465.3743790036324 L 1350 465.785509539187 L 1351 466.19494527804943 L 1352 466.6026753414114 L 1353 467.0086888957846 L 1354 467.41297515328904 L 1355 467.8155233719392 L 1356 468.21632285593 L 1357 468.6153629559203 L 1358 469.0126330693165 L 1359 469.4081226405538 L 1360 469.801821161377 L 1361 470.1937181711195 L 1362 470.5838032569811 L 1363 470.97206605430523 L 1364 471.3584962468537 L 1365 471.7430835670811 L 1366 472.1258177964077 L 1367 472.5066887654908 L 1368 472.88568635449496 L 1369 473.262800493361 L 1370 473.63802116207336 L 1371 474.0113383909265 L 1372 474.38274226078966 L 1373 474.7522229033707 L 1374 475.11977050147794 L 1375 475.4853752892812 L 1376 475.8490275525713 L 1377 476.21071762901795 L 1378 476.57043590842693 L 1379 476.9281728329949 L 1380 477.2839188975637 L 1381 477.6376646498729 L 1382 477.98940069081067 L 1383 478.3391176746639 L 1384 478.6868063093661 L 1385 479.03245735674477 L 1386 479.37606163276644 L 1387 479.7176100077808 L 1388 480.05709340676367 L 1389 480.3945028095573 L 1390 480.729829251111 L 1391 481.0630638217186 L 1392 481.3941976672554 L 1393 481.72322198941373 L 1394 482.05012804593633 L 1395 482.3749071508488 L 1396 482.69755067469026 L 1397 483.018050044743 L 1398 483.3363967452598 L 1399 483.65258231769036 L 1400 483.96659836090623 L 1401 484.27843653142395 L 1402 484.5880885436264 L 1403 484.8955461699834 L 1404 485.20080124127026 L 1405 485.5038456467844 L 1406 485.8046713345615 L 1407 486.10327031158886 L 1408 486.39963464401825 L 1409 486.69375645737637 L 1410 486.9856279367741 L 1411 487.2752413271146 L 1412 487.56258893329857 L 1413 487.84766312042956 L 1414 488.1304563140161 L 1415 488.4109610001734 L 1416 488.68916972582304 L 1417 488.9650750988905 L 1418 489.23866978850225 L 1419 489.50994652517994 L 1420 489.77889810103386 L 1421 490.04551736995455 L 1422 490.3097972478023 L 1423 490.5717307125957 L 1424 490.8313108046981 L 1425 491.08853062700257 L 1426 491.3433833451151 L 1427 491.5958621875362 L 1428 491.84596044584094 L 1429 492.09367147485693 L 1430 492.3389886928412 L 1431 492.5819055816549 L 1432 492.82241568693644 L 1433 493.06051261827304 L 1434 493.29619004937075 L 1435 493.52944171822213 L 1436 493.7602614272729 L 1437 493.98864304358665 L 1438 494.2145804990075 L 1439 494.4380677903217 L 1440 494.6590989794169 L 1441 494.87766819344 L 1442 495.0937696249531 L 1443 495.30739753208803 L 1444 495.51854623869866 L 1445 495.7272101345119 L 1446 495.9333836752767 L 1447 496.1370613829112 L 1448 496.33823784564873 L 1449 496.536907718181 L 1450 496.7330657218007 L 1451 496.9267066445413 L 1452 497.1178253413158 L 1453 497.30641673405347 L 1454 497.4924758118345 L 1455 497.6759976310234 L 1456 497.85697731540023 L 1457 498.03541005629023 L 1458 498.2112911126916 L 1459 498.3846158114013 L 1460 498.55537954713947 L 1461 498.72357778267155 L 1462 498.88920604892905 L 1463 499.0522599451282 L 1464 499.2127351388867 L 1465 499.37062736633936 L 1466 499.5259324322506 L 1467 499.6786462101267 L 1468 499.828764642325 L 1469 499.97628374016176 L 1470 500.1211995840182 L 1471 500.2635083234447 L 1472 500.40320617726303 L 1473 500.5402894336668 L 1474 500.67475445032017 L 1475 500.80659765445455 L 1476 500.9358155429635 L 1477 501.0624046824959 L 1478 501.1863617095472 L 1479 501.3076833305487 L 1480 501.42636632195496 L 1481 501.54240753032974 L 1482 501.6558038724296 L 1483 501.7665523352857 L 1484 501.8746499762842 L 1485 501.98009392324417 L 1486 502.082881374494 L 1487 502.1830095989457 L 1488 502.28047593616776 L 1489 502.37527779645563 L 1490 502.46741266090055 L 1491 502.55687808145643 L 1492 502.643671681005 L 1493 502.72779115341905 L 1494 502.8092342636234 L 1495 502.8879988476546 L 1496 502.9640828127183 L 1497 503.03748413724475 L 1498 503.1082008709427 L 1499 503.17623113485115 L 1500 503.24157312138925 L 1501 503.3042250944043 L 1502 503.3641853892179 L 1503 503.4214524126703 L 1504 503.47602464316265 L 1505 503.52790063069733 L 1506 503.5770789969165 L 1507 503.62355843513893 L 1508 503.66733771039446 L 1509 503.70841565945705 L 1510 503.74679119087534 L 1511 503.7824632850022 L 1512 503.81543099402114 L 1513 503.8456934419721 L 1514 503.87324982477435 L 1515 503.89809941024805 L 1516 503.9202415381336 L 1517 503.93967562010914 L 1518 503.95640113980636 L 1519 503.97041765282415 L 1520 503.98172478674024 L 1521 503.9903222411213 L 1522 503.9962097875309 L 1523 503.9993872695354 L 1524 503.9998546027084 L 1525 503.99761177463273 L 1526 503.9926588449008 L 1527 503.9849959451133 L 1528 503.9746232788753 L 1529 503.9615411217911 L 1530 503.9457498214568 L 1531 503.92724979745117 L 1532 503.9060415413244 L 1533 503.8821256165851 L 1534 503.8555026586853 L 1535 503.8261733750034 L 1536 503.79413854482584 L 1537 503.7593990193259 L 1538 503.72195572154135 L 1539 503.68180964634973" stroke-linecap="round" stroke-linejoin="round" stroke-miterlimit="10" stroke-width="21"/></g></svg>