<svg version="1.1" xmlns="http://www.w3.org/2000/svg" xmlns:xlink="http://www.w3.org/1999/xlink" width="1560" height="804"><defs/><g><path fill="none" stroke="#02063B" paint-order="fill stroke markers" d=" M 20 412.8329710605557 L 21 413.3728892563423 L 22 413.9125544068244 L 23 414.4519545045227 L 24 414.99107754785507 L 25 415.5299115414042 L 26 416.0684444961839 L 27 416.60666442990595 L 28 417.1445593672471 L 29 417.6821173401149 L 30 418.21932638791463 L 31 418.7561745578148 L 32 419.29264990501366 L 33 419.8287404930046 L 34 420.3644343938418 L 35 420.8997196884058 L 36 421.4345844666685 L 37 421.9690168279583 L 38 422.5030048812247 L 39 423.03653674530307 L 40 423.56960054917903 L 41 424.1021844322522 L 42 424.63427654460077 L 43 425.1658650472444 L 44 425.6969381124082 L 45 426.2274839237856 L 46 426.75749067680147 L 47 427.28694657887456 L 48 427.81583984967995 L 49 428.34415872141136 L 50 428.87189143904266 L 51 429.3990262605896 L 52 429.9255514573711 L 53 430.45145531427016 L 54 430.97672612999435 L 55 431.5013522173365 L 56 432.0253219034345 L 57 432.5486235300311 L 58 433.07124545373324 L 59 433.5931760462712 L 60 434.11440369475724 L 61 434.6349168019442 L 62 435.1547037864831 L 63 435.67375308318134 L 64 436.1920531432596 L 65 436.70959243460914 L 66 437.226359442048 L 67 437.74234266757776 L 68 438.2575306306387 L 69 438.77191186836586 L 70 439.28547493584364 L 71 439.7982084063607 L 72 440.31010087166413 L 73 440.8211409422132 L 74 441.33131724743293 L 75 441.840618435967 L 76 442.3490331759303 L 77 442.856550155161 L 78 443.3631580814726 L 79 443.8688456829046 L 80 444.3736017079737 L 81 444.8774149259242 L 82 445.38027412697755 L 83 445.8821681225821 L 84 446.38308574566173 L 85 446.88301585086464 L 86 447.38194731481104 L 87 447.8798690363409 L 88 448.3767699367608 L 89 448.87263896009034 L 90 449.36746507330844 L 91 449.86123726659844 L 92 450.35394455359346 L 93 450.8455759716204 L 94 451.3361205819444 L 95 451.82556747001166 L 96 452.3139057456927 L 97 452.80112454352457 L 98 453.28721302295236 L 99 453.7721603685708 L 100 454.2559557903646 L 101 454.73858852394864 L 102 455.22004783080746 L 103 455.7003229985342 L 104 456.1794033410689 L 105 456.6572781989364 L 106 457.13393693948336 L 107 457.60936895711484 L 108 458.08356367353036 L 109 458.5565105379593 L 110 459.0281990273955 L 111 459.4986186468315 L 112 459.9677589294921 L 113 460.4356094370671 L 114 460.9021597599436 L 115 461.3673995174377 L 116 461.8313183580254 L 117 462.29390595957295 L 118 462.75515202956643 L 119 463.21504630534093 L 120 463.6735785543086 L 121 464.1307385741868 L 122 464.58651619322444 L 123 465.040901270429 L 124 465.4938836957916 L 125 465.9454533905124 L 126 466.3956003072244 L 127 466.8443144302174 L 128 467.2915857756606 L 129 467.73740439182484 L 130 468.1817603593039 L 131 468.6246437912355 L 132 469.06604483352083 L 133 469.5059536650443 L 134 469.9443604978917 L 135 470.381255577568 L 136 470.81662918321473 L 137 471.2504716278258 L 138 471.6827732584633 L 139 472.11352445647236 L 140 472.5427156376948 L 141 472.97033725268284 L 142 473.3963797869112 L 143 473.82083376098905 L 144 474.24368973087064 L 145 474.66493828806585 L 146 475.08457005984906 L 147 475.502575709468 L 148 475.9189459363514 L 149 476.3336714763161 L 150 476.74674310177267 L 151 477.1581516219314 L 152 477.56788788300616 L 153 477.9759427684186 L 154 478.38230719900065 L 155 478.7869721331966 L 156 479.18992856726453 L 157 479.5911675354762 L 158 479.9906801103167 L 159 480.38845740268346 L 160 480.7844905620834 L 161 481.1787707768304 L 162 481.571289274241 L 163 481.9620373208297 L 164 482.35100622250354 L 165 482.73818732475496 L 166 483.1235720128549 L 167 483.5071517120443 L 168 483.88891788772474 L 169 484.2688620456486 L 170 484.6469757321078 L 171 485.02325053412216 L 172 485.39767807962625 L 173 485.770250037656 L 174 486.14095811853383 L 175 486.50979407405333 L 176 486.87674969766243 L 177 487.2418168246463 L 178 487.604987332309 L 179 487.966253140154 L 180 488.32560621006405 L 181 488.68303854648025 L 182 489.03854219657967 L 183 489.3921092504524 L 184 489.74373184127745 L 185 490.0934021454981 L 186 490.4411123829956 L 187 490.78685481726234 L 188 491.13062175557434 L 189 491.472405549162 L 190 491.81219859338023 L 191 492.1499933278783 L 192 492.48578223676725 L 193 492.8195578487876 L 194 493.1513127374755 L 195 493.48103952132783 L 196 493.8087308639666 L 197 494.1343794743022 L 198 494.4579781066954 L 199 494.7795195611188 L 200 495.0989966833169 L 201 495.41640236496534 L 202 495.7317295438291 L 203 496.04497120391943 L 204 496.35612037565033 L 205 496.66517013599315 L 206 496.972113608631 L 207 497.27694396411164 L 208 497.57965441999926 L 209 497.8802382410257 L 210 498.1786887392402 L 211 498.47499927415794 L 212 498.76916325290813 L 213 499.06117413038055 L 214 499.3510254093712 L 215 499.6387106407269 L 216 499.92422342348874 L 217 500.20755740503444 L 218 500.4887062812199 L 219 500.7676637965192 L 220 501.0444237441639 L 221 501.31897996628135 L 222 501.59132635403125 L 223 501.86145684774203 L 224 502.1293654370453 L 225 502.39504616100993 L 226 502.6584931082744 L 227 502.9197004171784 L 228 503.1786622758933 L 229 503.43537292255166 L 230 503.68982664537486 L 231 503.9420177828007 L 232 504.1919407236094 L 233 504.43958990704783 L 234 504.6849598229541 L 235 504.9280450118795 L 236 505.1688400652102 L 237 505.40733962528765 L 238 505.64353838552773 L 239 505.8774310905387 L 240 506.10901253623854 L 241 506.33827756997005 L 242 506.56522109061615 L 243 506.789838048713 L 244 507.0121234465628 L 245 507.23207233834404 L 246 507.44967983022275 L 247 507.6649410804606 L 248 507.87785129952266 L 249 508.0884057501844 L 250 508.2965997476367 L 251 508.50242865959024 L 252 508.70588790637845 L 253 508.90697296105975 L 254 509.10567934951774 L 255 509.3020026505612 L 256 509.49593849602223 L 257 509.6874825708536 L 258 509.8766306132245 L 259 510.0633784146157 L 260 510.24772181991295 L 261 510.4296567274994 L 262 510.6091790893471 L 263 510.7862849111069 L 264 510.9609702521974 L 265 511.1332312258924 L 266 511.30306399940775 L 267 511.47046479398625 L 268 511.63542988498216 L 269 511.7979556019436 L 270 511.95803832869467 L 271 512.1156745034153 L 272 512.2708606187215 L 273 512.4235932217421 L 274 512.5738689141966 L 275 512.7216843524706 L 276 512.8670362476897 L 277 513.0099213657933 L 278 513.150336527606 L 279 513.2882786089087 L 280 513.4237445405083 L 281 513.5567313083052 L 282 513.6872359533613 L 283 513.8152555719653 L 284 513.9407873156971 L 285 514.063828391492 L 286 514.184376061702 L 287 514.3024276441572 L 288 514.4179805122251 L 289 514.5310320948696 L 290 514.6415798767077 L 291 514.7496213980655 L 292 514.8551542550335 L 293 514.9581760995192 L 294 515.0586846392998 L 295 515.1566776380738 L 296 515.2521529155094 L 297 515.3451083472943 L 298 515.4355418651821 L 299 515.523451457039 L 300 515.6088351668878 L 301 515.6916910949523 L 302 515.7720173976987 L 303 515.8498122878774 L 304 515.925074034562 L 305 515.9978009631888 L 306 516.0679914555927 L 307 516.1356439500447 L 308 516.2007569412855 L 309 516.2633289805594 L 310 516.3233586756469 L 311 516.380844690895 L 312 516.4357857472472 L 313 516.4881806222725 L 314 516.5380281501914 L 315 516.5853272219031 L 316 516.6300767850094 L 317 516.6722758438383 L 318 516.7119234594662 L 319 516.749018749739 L 320 516.783560889291 L 321 516.8155491095645 L 322 516.8449826988254 L 323 516.8718610021805 L 324 516.8961834215906 L 325 516.9179494158856 L 326 516.9371585007746 L 327 516.9538102488578 L 328 516.9679042896365 L 329 516.9794403095198 L 330 516.9884180518327 L 331 516.9948373168218 L 332 516.998697961659 L 333 516.9999999004458 L 334 516.9987431042141 L 335 516.9949276009274 L 336 516.9885534754802 L 337 516.979620869696 L 338 516.968129982324 L 339 516.9540810690349 L 340 516.9374744424155 L 341 516.9183104719608 L 342 516.8965895840666 L 343 516.8723122620202 L 344 516.8454790459884 L 345 516.816090533007 L 346 516.7841473769666 L 347 516.7496502885982 L 348 516.7126000354575 L 349 516.6729974419079 L 350 516.6308433891019 L 351 516.5861388149616 L 352 516.5388847141581 L 353 516.4890821380889 L 354 516.4367321948548 L 355 516.3818360492353 L 356 516.3243949226625 L 357 516.2644100931939 L 358 516.2018828954841 L 359 516.1368147207552 L 360 516.0692070167656 L 361 515.999061287778 L 362 515.9263790945256 L 363 515.8511620541777 L 364 515.7734118403038 L 365 515.693130182836 L 366 515.6103188680305 L 367 515.5249797384286 L 368 515.4371146928146 L 369 515.3467256861743 L 370 515.2538147296515 L 371 515.1583838905027 L 372 515.0604352920518 L 373 514.9599711136423 L 374 514.856993590589 L 375 514.7515050141285 L 376 514.6435077313678 L 377 514.5330041452323 L 378 514.4199967144126 L 379 514.3044879533093 L 380 514.1864804319771 L 381 514.065976776068 L 382 513.9429796667729 L 383 513.8174918407611 L 384 513.6895160901207 L 385 513.5590552622954 L 386 513.4261122600215 L 387 513.2906900412636 L 388 513.1527916191484 L 389 513.0124200618977 L 390 512.8695784927606 L 391 512.7242700899434 L 392 512.5764980865389 L 393 512.4262657704551 L 394 512.2735764843413 L 395 512.1184336255145 L 396 511.96084064588297 L 397 511.8008010518699 L 398 511.63831840433545 L 399 511.4733963184974 L 400 511.30603846385065 L 401 511.13624856408575 L 402 510.9640303970058 L 403 510.78938779444246 L 404 510.6123246421711 L 405 510.4328448798236 L 406 510.2509525008015 L 407 510.06665155218633 L 408 509.8799461346503 L 409 509.69084040236464 L 410 509.49933856290727 L 411 509.3054448771692 L 412 509.10916365925954 L 413 508.91049927640995 L 414 508.709456148877 L 415 508.50603874984415 L 416 508.300251605322 L 417 508.09209929404767 L 418 507.8815864473831 L 419 507.66871774921157 L 420 507.453497935834 L 421 507.23593179586305 L 422 507.0160241701172 L 423 506.7937799515123 L 424 506.5692040849534 L 425 506.3423015672242 L 426 506.11307744687616 L 427 505.88153682411615 L 428 505.6476848506928 L 429 505.41152672978217 L 430 505.1730677158715 L 431 504.932313114643 L 432 504.6892682828551 L 433 504.44393862822363 L 434 504.1963296093014 L 435 503.94644673535703 L 436 503.69429556625164 L 437 503.43988171231615 L 438 503.1832108342255 L 439 502.92428864287336 L 440 502.66312089924475 L 441 502.39971341428804 L 442 502.13407204878524 L 443 501.8662027132224 L 444 501.5961113676571 L 445 501.32380402158674 L 446 501.0492867338143 L 447 500.77256561231366 L 448 500.49364681409367 L 449 500.21253654506137 L 450 499.9292410598835 L 451 499.6437666618478 L 452 499.35611970272237 L 453 499.0663065826147 L 454 498.7743337498289 L 455 498.48020770072236 L 456 498.1839349795615 L 457 497.88552217837577 L 458 497.5849759368111 L 459 497.28230294198215 L 460 496.9775099283237 L 461 496.6706036774406 L 462 496.361591017957 L 463 496.05047882536417 L 464 495.7372740218681 L 465 495.42198357623465 L 466 495.1046145036353 L 467 494.7851738654905 L 468 494.4636687693129 L 469 494.140106368549 L 470 493.81449386242 L 471 493.4868384957619 L 472 493.1571475588638 L 473 492.8254283873062 L 474 492.49168836179734 L 475 492.1559349080094 L 476 491.81817549641295 L 477 491.4784176421109 L 478 491.1366689046714 L 479 490.7929368879591 L 480 490.44722923996676 L 481 490.0995536526445 L 482 489.7499178617288 L 483 489.3983296465705 L 484 489.0447968299616 L 485 488.68932727796124 L 486 488.3319288997206 L 487 487.972609647307 L 488 487.6113775155272 L 489 487.2482405417488 L 490 486.8832068057224 L 491 486.51628442940097 L 492 486.1474815767596 L 493 485.77680645361374 L 494 485.4042673074366 L 495 485.02987242717563 L 496 484.6536301430682 L 497 484.2755488264561 L 498 483.89563688959936 L 499 483.5139027854891 L 500 483.1303550076594 L 501 482.74500208999837 L 502 482.35785260655825 L 503 481.9689151713646 L 504 481.5781984382247 L 505 481.18571110053495 L 506 480.7914618910875 L 507 480.395459581876 L 508 479.9977129839001 L 509 479.5982309469698 L 510 479.1970223595086 L 511 478.79409614835504 L 512 478.38946127856497 L 513 477.98312675321154 L 514 477.575101613185 L 515 477.16539493699156 L 516 476.75401584055135 L 517 476.3409734769958 L 518 475.92627703646366 L 519 475.50993574589666 L 520 475.0919588688343 L 521 474.6723557052076 L 522 474.2511355911324 L 523 473.82830789870144 L 524 473.40388203577555 L 525 472.97786744577513 L 526 472.5502736074692 L 527 472.12111003476497 L 528 471.6903862764961 L 529 471.25811191621 L 530 470.824296571955 L 531 470.3889498960659 L 532 469.9520815749496 L 533 469.5137013288694 L 534 469.0738189117285 L 535 468.6324441108535 L 536 468.18958674677623 L 537 467.7452566730153 L 538 467.299463775857 L 539 466.8522179741353 L 540 466.4035292190109 L 541 465.9534074937503 L 542 465.5018628135031 L 543 465.0489052250798 L 544 464.59454480672764 L 545 464.1387916679067 L 546 463.681655949065 L 547 463.22314782141274 L 548 462.76327748669604 L 549 462.30205517697 L 550 461.8394911543708 L 551 461.37559571088786 L 552 460.9103791681343 L 553 460.44385187711754 L 554 459.9760242180091 L 555 459.50690659991346 L 556 459.03650946063647 L 557 458.5648432664533 L 558 458.0919185118752 L 559 457.6177457194165 L 560 457.14233543936 L 561 456.66569824952245 L 562 456.1878447550194 L 563 455.7087855880287 L 564 455.22853140755444 L 565 454.7470928991897 L 566 454.2644807748784 L 567 453.78070577267766 L 568 453.2957786565181 L 569 452.8097102159649 L 570 452.3225112659776 L 571 451.8341926466694 L 572 451.3447652230659 L 573 450.8542398848636 L 574 450.3626275461873 L 575 449.8699391453476 L 576 449.3761856445972 L 577 448.88137802988706 L 578 448.38552731062236 L 579 447.88864451941697 L 580 447.3907407118481 L 581 446.89182696621083 L 582 446.39191438327083 L 583 445.8910140860181 L 584 445.389137219419 L 585 444.88629495016835 L 586 444.38249846644123 L 587 443.8777589776437 L 588 443.37208771416374 L 589 442.865495927121 L 590 442.35799488811676 L 591 441.8495958889831 L 592 441.34031024153154 L 593 440.8301492773013 L 594 440.3191243473075 L 595 439.8072468217881 L 596 439.2945280899516 L 597 438.7809795597229 L 598 438.26661265748976 L 599 437.751438827849 L 600 437.235469533351 L 601 436.71871625424546 L 602 436.2011904882256 L 603 435.6829037501722 L 604 435.16386757189775 L 605 434.64409350188953 L 606 434.1235931050529 L 607 433.602377962454 L 608 433.08045967106176 L 609 432.5578498434902 L 610 432.03456010773994 L 611 431.51060210693936 L 612 430.98598749908587 L 613 430.46072795678606 L 614 429.93483516699627 L 615 429.4083208307627 L 616 428.88119666296075 L 617 428.3534743920344 L 618 427.8251657597355 L 619 427.29628252086223 L 620 426.76683644299794 L 621 426.2368393062487 L 622 425.70630290298186 L 623 425.17523903756336 L 624 424.6436595260949 L 625 424.11157619615136 L 626 423.5790008865177 L 627 423.045945446925 L 628 422.5124217377874 L 629 421.97844162993806 L 630 421.4440170043647 L 631 420.90915975194565 L 632 420.3738817731852 L 633 419.83819497794843 L 634 419.30211128519704 L 635 418.76564262272313 L 636 418.22880092688473 L 637 417.69159814233956 L 638 417.1540462217796 L 639 416.61615712566515 L 640 416.0779428219584 L 641 415.5394152858577 L 642 415.00058649953036 L 643 414.46146845184677 L 644 413.9220731381133 L 645 413.3824125598055 L 646 412.84249872430075 L 647 412.3023436446117 L 648 411.7619593391185 L 649 411.22135783130153 L 650 410.680551149474 L 651 410.139551326514 L 652 409.59837039959723 L 653 409.0570204099288 L 654 408.5155134024754 L 655 407.9738614256975 L 656 407.432076531281 L 657 406.8901707738693 L 658 406.34815621079474 L 659 405.8060449018109 L 660 405.2638489088238 L 661 404.72158029562354 L 662 404.17925112761617 L 663 403.63687347155513 L 664 403.0944593952725 L 665 402.552020967411 L 666 402.0095702571548 L 667 401.4671193339616 L 668 400.92468026729387 L 669 400.38226512635015 L 670 399.8398859797966 L 671 399.2975548954986 L 672 398.7552839402522 L 673 398.2130851795155 L 674 397.6709706771403 L 675 397.12895249510365 L 676 396.5870426932395 L 677 396.0452533289704 L 678 395.503596457039 L 679 394.96208412924034 L 680 394.42072839415306 L 681 393.87954129687176 L 682 393.3385348787389 L 683 392.79772117707677 L 684 392.25711222491987 L 685 391.71672005074686 L 686 391.1765566782133 L 687 390.6366341258838 L 688 390.0969644069649 L 689 389.5575595290375 L 690 389.01843149379 L 691 388.4795922967507 L 692 387.9410539270218 L 693 387.40282836701175 L 694 386.86492759216924 L 695 386.32736357071633 L 696 385.79014826338255 L 697 385.2532936231385 L 698 384.71681159493005 L 699 384.18071411541234 L 700 383.6450131126846 L 701 383.1097205060242 L 702 382.574848205622 L 703 382.0404081123171 L 704 381.50641211733176 L 705 380.9728721020075 L 706 380.4397999375401 L 707 379.9072074847157 L 708 379.37510659364716 L 709 378.84350910350986 L 710 378.3124268422788 L 711 377.7818716264651 L 712 377.2518552608531 L 713 376.72238953823813 L 714 376.19348623916335 L 715 375.6651571316583 L 716 375.13741397097687 L 717 374.6102684993356 L 718 374.08373244565263 L 719 373.5578175252865 L 720 373.03253543977564 L 721 372.5078978765782 L 722 371.98391650881155 L 723 371.4606029949927 L 724 370.93796897877945 L 725 370.4160260887104 L 726 369.89478593794695 L 727 369.37426012401454 L 728 368.85446022854467 L 729 368.3353978170174 L 730 367.81708443850374 L 731 367.2995316254088 L 732 366.78275089321534 L 733 366.2667537402273 L 734 365.7515516473141 L 735 365.23715607765524 L 736 364.7235784764851 L 737 364.21083027083847 L 738 363.6989228692961 L 739 363.187867661731 L 740 362.67767601905496 L 741 362.1683592929656 L 742 361.6599288156937 L 743 361.15239589975124 L 744 360.6457718376793 L 745 360.1400679017975 L 746 359.6352953439524 L 747 359.13146539526775 L 748 358.6285892658942 L 749 358.12667814476015 L 750 357.62574319932276 L 751 357.1257955753192 L 752 356.626846396519 L 753 356.1289067644764 L 754 355.6319877582834 L 755 355.1361004343231 L 756 354.641255826024 L 757 354.14746494361395 L 758 353.65473877387603 L 759 353.16308827990315 L 760 352.6725244008548 L 761 352.1830580517134 L 762 351.69470012304146 L 763 351.2074614807393 L 764 350.7213529658033 L 765 350.23638539408444 L 766 349.7525695560482 L 767 349.26991621653383 L 768 348.7884361145153 L 769 348.30813996286224 L 770 347.8290384481013 L 771 347.351142230179 L 772 346.8744619422238 L 773 346.3990081903099 L 774 345.9247915532216 L 775 345.4518225822172 L 776 344.98011180079465 L 777 344.50966970445745 L 778 344.0405067604809 L 779 343.5726334076795 L 780 343.1060600561744 L 781 342.6407970871618 L 782 342.1768548526822 L 783 341.7142436753899 L 784 341.25297384832334 L 785 340.7930556346761 L 786 340.33449926756845 L 787 339.87731494981995 L 788 339.421512853722 L 789 338.96710312081194 L 790 338.51409586164715 L 791 338.06250115558015 L 792 337.6123290505342 L 793 337.1635895627802 L 794 336.71629267671307 L 795 336.2704483446305 L 796 335.8260664865106 L 797 335.383156989792 L 798 334.94172970915315 L 799 334.5017944662937 L 800 334.0633610497154 L 801 333.6264392145047 L 802 333.1910386821155 L 803 332.757169140153 L 804 332.3248402421579 L 805 331.8940616073919 L 806 331.4648428206236 L 807 331.0371934319149 L 808 330.6111229564092 L 809 330.18664087411895 L 810 329.76375662971526 L 811 329.34247963231746 L 812 328.9228192552839 L 813 328.50478483600324 L 814 328.08838567568694 L 815 327.67363103916193 L 816 327.26053015466505 L 817 326.84909221363705 L 818 326.4393263705186 L 819 326.03124174254623 L 820 325.6248474095499 L 821 325.2201524137504 L 822 324.8171657595588 L 823 324.4158964133756 L 824 324.0163533033916 L 825 323.6185453193889 L 826 323.2224813125432 L 827 322.8281700952273 L 828 322.4356204408142 L 829 322.0448410834827 L 830 321.6558407180226 L 831 321.26862799964124 L 832 320.8832115437714 L 833 320.4995999258788 L 834 320.11780168127206 L 835 319.73782530491246 L 836 319.35967925122475 L 837 318.9833719339094 L 838 318.60891172575526 L 839 318.23630695845316 L 840 317.8655659224106 L 841 317.49669686656745 L 842 317.12970799821204 L 843 316.76460748279897 L 844 316.4014034437671 L 845 316.04010396235896 L 846 315.68071707744105 L 847 315.3232507853246 L 848 314.96771303958826 L 849 314.6141117509004 L 850 314.2624547868437 L 851 313.9127499717397 L 852 313.56500508647514 L 853 313.2192278683283 L 854 312.87542601079736 L 855 312.53360716342877 L 856 312.19377893164733 L 857 311.8559488765871 L 858 311.5201245149227 L 859 311.1863133187024 L 860 310.8545227151819 L 861 310.52476008665883 L 862 310.19703277030874 L 863 309.8713480580218 L 864 309.5477131962404 L 865 309.2261353857981 L 866 308.9066217817592 L 867 308.5891794932598 L 868 308.2738155833496 L 869 307.9605370688343 L 870 307.64935092012024 L 871 307.3402640610586 L 872 307.0332833687917 L 873 306.7284156736 L 874 306.42566775875 L 875 306.12504636034345 L 876 305.82655816716726 L 877 305.53020982054477 L 878 305.2360079141881 L 879 304.94395899405146 L 880 304.6540695581852 L 881 304.36634605659157 L 882 304.0807948910809 L 883 303.7974224151295 L 884 303.516234933738 L 885 303.2372387032914 L 886 302.9604399314193 L 887 302.6858447768583 L 888 302.41345934931496 L 889 302.14328970932945 L 890 301.87534186814116 L 891 301.6096217875547 L 892 301.3461353798071 L 893 301.0848885074367 L 894 300.82588698315226 L 895 300.56913656970414 L 896 300.31464297975555 L 897 300.0624118757557 L 898 299.8124488698137 L 899 299.56475952357397 L 900 299.31934934809226 L 901 299.0762238037129 L 902 298.8353882999476 L 903 298.59684819535505 L 904 298.3606087974213 L 905 298.1266753624424 L 906 297.89505309540675 L 907 297.6657471498795 L 908 297.43876262788825 L 909 297.21410457980886 L 910 296.99177800425383 L 911 296.77178784796035 L 912 296.55413900568084 L 913 296.33883632007365 L 914 296.1258845815955 L 915 295.9152885283948 L 916 295.70705284620635 L 917 295.50118216824694 L 918 295.29768107511234 L 919 295.0965540946754 L 920 294.89780570198513 L 921 294.7014403191675 L 922 294.5074623153266 L 923 294.31587600644787 L 924 294.12668565530157 L 925 293.9398954713485 L 926 293.7555096106459 L 927 293.5735321757551 L 928 293.3939672156504 L 929 293.2168187256287 L 930 293.04209064722085 L 931 292.8697868681038 L 932 292.6999112220143 L 933 292.53246748866326 L 934 292.367459393652 L 935 292.204890608389 L 936 292.0447647500087 L 937 291.8870853812906 L 938 291.73185601058003 L 939 291.5790800917103 L 940 291.42876102392574 L 941 291.2809021518059 L 942 291.1355067651916 L 943 290.9925780991112 L 944 290.85211933370886 L 945 290.7141335941738 L 946 290.5786239506708 L 947 290.44559341827176 L 948 290.31504495688876 L 949 290.1869814712079 L 950 290.0614058106252 L 951 289.9383207691828 L 952 289.8177290855066 L 953 289.69963344274606 L 954 289.58403646851383 L 955 289.4709407348275 L 956 289.36034875805234 L 957 289.25226299884554 L 958 289.1466858621011 L 959 289.04361969689654 L 960 288.9430667964407 L 961 288.84502939802246 L 962 288.74950968296116 L 963 288.656509776558 L 964 288.5660317480489 L 965 288.47807761055805 L 966 288.3926493210536 L 967 288.30974878030395 L 968 288.2293778328352 L 969 288.1515382668906 L 970 288.0762318143903 L 971 288.00346015089303 L 972 287.93322489555885 L 973 287.865527611113 L 974 287.8003698038113 L 975 287.73775292340645 L 976 287.6776783631159 L 977 287.6201474595907 L 978 287.5651614928861 L 979 287.5127216864326 L 980 287.4628292070091 L 981 287.41548516471676 L 982 287.3706906129544 L 983 287.3284465483949 L 984 287.2887539109632 L 985 287.25161358381536 L 986 287.21702639331875 L 987 287.1849931090338 L 988 287.15551444369714 L 989 287.12859105320507 L 990 287.10422353659953 L 991 287.08241243605465 L 992 287.0631582368645 L 993 287.0464613674325 L 994 287.03232219926196 L 995 287.02074104694736 L 996 287.01171816816793 L 997 287.0052537636815 L 998 287.0013479773202 L 999 287.0000008959874 L 1000 287.00121254965535 L 1001 287.00498291136495 L 1002 287.01131189722616 L 1003 287.0201993664199 L 1004 287.0316451212011 L 1005 287.0456489069032 L 1006 287.0622104119438 L 1007 287.0813292678315 L 1008 287.1030050491744 L 1009 287.1272372736891 L 1010 287.15402540221174 L 1011 287.18336883871 L 1012 287.2152669302962 L 1013 287.24971896724196 L 1014 287.286724182994 L 1015 287.32628175419103 L 1016 287.3683908006823 L 1017 287.4130503855469 L 1018 287.460259515115 L 1019 287.51001713898955 L 1020 287.5623221500699 L 1021 287.61717338457646 L 1022 287.6745696220763 L 1023 287.73450958551064 L 1024 287.79699194122315 L 1025 287.86201529898943 L 1026 287.9295782120484 L 1027 287.99967917713394 L 1028 288.07231663450875 L 1029 288.1474889679988 L 1030 288.22519450502955 L 1031 288.3054315166629 L 1032 288.38819821763576 L 1033 288.47349276639983 L 1034 288.5613132651625 L 1035 288.6516577599291 L 1036 288.74452424054647 L 1037 288.8399106407474 L 1038 288.937814838197 L 1039 289.03823465453956 L 1040 289.1411678554473 L 1041 289.2466121506699 L 1042 289.3545651940855 L 1043 289.46502458375295 L 1044 289.57798786196525 L 1045 289.6934525153041 L 1046 289.8114159746961 L 1047 289.9318756154696 L 1048 290.05482875741325 L 1049 290.1802726648357 L 1050 290.3082045466263 L 1051 290.4386215563174 L 1052 290.5715207921475 L 1053 290.7068992971259 L 1054 290.8447540590986 L 1055 290.98508201081495 L 1056 291.12788002999633 L 1057 291.2731449394055 L 1058 291.42087350691713 L 1059 291.57106244558975 L 1060 291.7237084137391 L 1061 291.8788080150122 L 1062 292.0363577984633 L 1063 292.1963542586301 L 1064 292.3587938356122 L 1065 292.5236729151502 L 1066 292.690987828706 L 1067 292.86073485354467 L 1068 293.032910212817 L 1069 293.20751007564365 L 1070 293.3845305572004 L 1071 293.5639677188045 L 1072 293.7458175680027 L 1073 293.9300760586593 L 1074 294.1167390910471 L 1075 294.3058025119378 L 1076 294.497262114695 L 1077 294.6911136393674 L 1078 294.88735277278386 L 1079 295.08597514864925 L 1080 295.28697634764154 L 1081 295.4903518975102 L 1082 295.69609727317584 L 1083 295.90420789683054 L 1084 296.1146791380401 L 1085 296.3275063138468 L 1086 296.54268468887375 L 1087 296.76020947543 L 1088 296.9800758336175 L 1089 297.2022788714384 L 1090 297.42681364490403 L 1091 297.65367515814495 L 1092 297.882858363522 L 1093 298.1143581617387 L 1094 298.3481694019548 L 1095 298.5842868819006 L 1096 298.82270534799284 L 1097 299.06341949545185 L 1098 299.30642396841904 L 1099 299.55171336007675 L 1100 299.7992822127678 L 1101 300.0491250181175 L 1102 300.301236217156 L 1103 300.55561020044195 L 1104 300.8122413081873 L 1105 301.0711238303834 L 1106 301.33225200692794 L 1107 301.59562002775283 L 1108 301.86122203295395 L 1109 302.1290521129213 L 1110 302.39910430847056 L 1111 302.6713726109755 L 1112 302.94585096250177 L 1113 303.2225332559419 L 1114 303.5014133351509 L 1115 303.7824849950833 L 1116 304.0657419819313 L 1117 304.35117799326383 L 1118 304.6387866781668 L 1119 304.9285616373844 L 1120 305.22049642346167 L 1121 305.51458454088754 L 1122 305.81081944623963 L 1123 306.10919454833004 L 1124 306.4097032083515 L 1125 306.71233874002553 L 1126 307.01709440975094 L 1127 307.3239634367538 L 1128 307.6329389932382 L 1129 307.94401420453823 L 1130 308.25718214927105 L 1131 308.5724358594906 L 1132 308.889768320843 L 1133 309.2091724727221 L 1134 309.53064120842737 L 1135 309.85416737532114 L 1136 310.17974377498837 L 1137 310.5073631633967 L 1138 310.83701825105726 L 1139 311.16870170318737 L 1140 311.50240613987336 L 1141 311.838124136235 L 1142 312.1758482225907 L 1143 312.51557088462346 L 1144 312.8572845635482 L 1145 313.2009816562802 L 1146 313.54665451560385 L 1147 313.8942954503431 L 1148 314.2438967255325 L 1149 314.595450562589 L 1150 314.9489491394857 L 1151 315.3043845909253 L 1152 315.6617490085152 L 1153 316.02103444094377 L 1154 316.3822328941568 L 1155 316.7453363315359 L 1156 317.1103366740768 L 1157 317.47722580056944 L 1158 317.84599554777856 L 1159 318.2166377106253 L 1160 318.5891440423698 L 1161 318.96350625479477 L 1162 319.3397160183896 L 1163 319.7177649625362 L 1164 320.0976446756948 L 1165 320.4793467055912 L 1166 320.8628625594049 L 1167 321.24818370395826 L 1168 321.6353015659058 L 1169 322.0242075319258 L 1170 322.41489294891096 L 1171 322.80734912416165 L 1172 323.2015673255791 L 1173 323.5975387818597 L 1174 323.99525468269024 L 1175 324.3947061789436 L 1176 324.7958843828759 L 1177 325.1987803683246 L 1178 325.6033851709064 L 1179 326.0096897882171 L 1180 326.41768518003204 L 1181 326.8273622685067 L 1182 327.2387119383793 L 1183 327.6517250371733 L 1184 328.06639237540105 L 1185 328.4827047267683 L 1186 328.90065282837935 L 1187 329.32022738094344 L 1188 329.74141904898147 L 1189 330.1642184610336 L 1190 330.5886162098682 L 1191 331.01460285269036 L 1192 331.44216891135284 L 1193 331.8713048725666 L 1194 332.3020011881124 L 1195 332.73424827505323 L 1196 333.16803651594785 L 1197 333.6033562590643 L 1198 334.04019781859495 L 1199 334.4785514748721 L 1200 334.91840747458394 L 1201 335.3597560309919 L 1202 335.8025873241479 L 1203 336.2468915011134 L 1204 336.6926586761783 L 1205 337.1398789310812 L 1206 337.58854231522963 L 1207 338.0386388459215 L 1208 338.4901585085679 L 1209 338.94309125691495 L 1210 339.39742701326816 L 1211 339.853155668716 L 1212 340.3102670833554 L 1213 340.7687510865168 L 1214 341.2285974769908 L 1215 341.6897960232552 L 1216 342.15233646370245 L 1217 342.616208506868 L 1218 343.08140183165926 L 1219 343.54790608758526 L 1220 344.01571089498725 L 1221 344.4848058452691 L 1222 344.9551805011293 L 1223 345.42682439679294 L 1224 345.89972703824486 L 1225 346.37387790346287 L 1226 346.8492664426519 L 1227 347.32588207847914 L 1228 347.8037142063085 L 1229 348.28275219443736 L 1230 348.7629853843331 L 1231 349.2444030908696 L 1232 349.7269946025657 L 1233 350.2107491818232 L 1234 350.69565606516545 L 1235 351.18170446347773 L 1236 351.6688835622463 L 1237 352.1571825217998 L 1238 352.6465904775501 L 1239 353.1370965402336 L 1240 353.62868979615445 L 1241 354.1213593074268 L 1242 354.6150941122182 L 1243 355.1098832249935 L 1244 355.6057156367593 L 1245 356.1025803153092 L 1246 356.6004662054687 L 1247 357.09936222934164 L 1248 357.59925728655645 L 1249 358.10014025451335 L 1250 358.6019999886313 L 1251 359.10482532259675 L 1252 359.6086050686115 L 1253 360.1133280176418 L 1254 360.61898293966783 L 1255 361.12555858393335 L 1256 361.63304367919625 L 1257 362.14142693397935 L 1258 362.6506970368214 L 1259 363.16084265652904 L 1260 363.67185244242853 L 1261 364.1837150246187 L 1262 364.6964190142239 L 1263 365.20995300364706 L 1264 365.7243055668238 L 1265 366.23946525947673 L 1266 366.75542061936954 L 1267 367.2721601665628 L 1268 367.78967240366893 L 1269 368.30794581610803 L 1270 368.8269688723642 L 1271 369.346730024242 L 1272 369.86721770712353 L 1273 370.3884203402256 L 1274 370.91032632685756 L 1275 371.4329240546793 L 1276 371.9562018959592 L 1277 372.4801482078336 L 1278 373.00475133256526 L 1279 373.529999597803 L 1280 374.05588131684146 L 1281 374.5823847888807 L 1282 375.1094982992871 L 1283 375.6372101198537 L 1284 376.1655085090613 L 1285 376.6943817123395 L 1286 377.22381796232855 L 1287 377.75380547914057 L 1288 378.2843324706226 L 1289 378.815387132618 L 1290 379.3469576492298 L 1291 379.8790321930834 L 1292 380.4115989255892 L 1293 380.944645997207 L 1294 381.47816154770874 L 1295 382.01213370644297 L 1296 382.54655059259886 L 1297 383.08140031547003 L 1298 383.61667097471997 L 1299 384.1523506606462 L 1300 384.6884274544455 L 1301 385.22488942847906 L 1302 385.76172464653786 L 1303 386.2989211641081 L 1304 386.83646702863723 L 1305 387.37435027979996 L 1306 387.9125589497638 L 1307 388.45108106345623 L 1308 388.98990463883007 L 1309 389.5290176871311 L 1310 390.06840821316416 L 1311 390.6080642155603 L 1312 391.14797368704393 L 1313 391.6881246146994 L 1314 392.22850498023905 L 1315 392.7691027602701 L 1316 393.3099059265623 L 1317 393.8509024463158 L 1318 394.3920802824285 L 1319 394.9334273937638 L 1320 395.47493173541915 L 1321 396.0165812589935 L 1322 396.5583639128554 L 1323 397.1002676424116 L 1324 397.6422803903744 L 1325 398.184390097031 L 1326 398.72658470051084 L 1327 399.26885213705475 L 1328 399.811180341283 L 1329 400.35355724646337 L 1330 400.8959707847806 L 1331 401.4384088876041 L 1332 401.98085948575664 L 1333 402.52331050978324 L 1334 403.0657498902191 L 1335 403.6081655578587 L 1336 404.1505454440241 L 1337 404.6928774808335 L 1338 405.2351496014697 L 1339 405.77734974044876 L 1340 406.319465833888 L 1341 406.8614858197751 L 1342 407.4033976382359 L 1343 407.9451892318031 L 1344 408.4868485456844 L 1345 409.02836352803035 L 1346 409.5697221302033 L 1347 410.1109123070448 L 1348 410.651922017144 L 1349 411.1927392231054 L 1350 411.7333518918163 L 1351 412.27374799471545 L 1352 412.81391550805995 L 1353 413.3538424131929 L 1354 413.8935166968111 L 1355 414.4329263512321 L 1356 414.97205937466106 L 1357 415.51090377145863 L 1358 416.0494475524072 L 1359 416.58767873497766 L 1360 417.12558534359647 L 1361 417.6631554099115 L 1362 418.20037697305884 L 1363 418.7372380799287 L 1364 419.2737267854314 L 1365 419.8098311527632 L 1366 420.3455392536715 L 1367 420.8808391687211 L 1368 421.4157189875584 L 1369 421.9501668091773 L 1370 422.48417074218327 L 1371 423.0177189050585 L 1372 423.5507994264256 L 1373 424.0834004453126 L 1374 424.6155101114161 L 1375 425.1471165853654 L 1376 425.6782080389858 L 1377 426.20877265556146 L 1378 426.7387986300988 L 1379 427.26827416958895 L 1380 427.79718749327014 L 1381 428.3255268328899 L 1382 428.8532804329666 L 1383 429.3804365510514 L 1384 429.9069834579893 L 1385 430.43290943818033 L 1386 430.95820278984 L 1387 431.4828518252594 L 1388 432.00684487106594 L 1389 432.53017026848266 L 1390 433.0528163735876 L 1391 433.57477155757294 L 1392 434.09602420700406 L 1393 434.6165627240771 L 1394 435.13637552687794 L 1395 435.6554510496395 L 1396 436.17377774299894 L 1397 436.691344074255 L 1398 437.2081385276241 L 1399 437.7241496044969 L 1400 438.23936582369424 L 1401 438.7537757217224 L 1402 439.2673678530281 L 1403 439.7801307902532 L 1404 440.29205312448937 L 1405 440.80312346553114 L 1406 441.3133304421301 L 1407 441.8226627022475 L 1408 442.3311089133069 L 1409 442.8386577624462 L 1410 443.34529795676974 L 1411 443.8510182235991 L 1412 444.35580731072434 L 1413 444.859653986654 L 1414 445.362547040865 L 1415 445.86447528405256 L 1416 446.36542754837853 L 1417 446.86539268772043 L 1418 447.36435957791895 L 1419 447.8623171170257 L 1420 448.35925422555044 L 1421 448.8551598467071 L 1422 449.3500229466603 L 1423 449.84383251477044 L 1424 450.33657756383917 L 1425 450.828247130353 L 1426 451.3188302747283 L 1427 451.808316081554 L 1428 452.2966936598346 L 1429 452.7839521432328 L 1430 453.2700806903105 L 1431 453.755068484771 L 1432 454.23890473569907 L 1433 454.7215786778011 L 1434 455.20307957164493 L 1435 455.6833967038981 L 1436 456.16251938756704 L 1437 456.6404369622346 L 1438 457.1171387942969 L 1439 457.59261427720037 L 1440 458.06685283167724 L 1441 458.5398439059816 L 1442 459.0115769761236 L 1443 459.4820415461039 L 1444 459.9512271481471 L 1445 460.41912334293477 L 1446 460.8857197198373 L 1447 461.3510058971462 L 1448 461.8149715223046 L 1449 462.2776062721378 L 1450 462.738899853083 L 1451 463.19884200141786 L 1452 463.65742248348965 L 1453 464.1146310959423 L 1454 464.57045766594376 L 1455 465.0248920514124 L 1456 465.477924141242 L 1457 465.9295438555278 L 1458 466.3797411457899 L 1459 466.82850599519725 L 1460 467.2758284187904 L 1461 467.72169846370383 L 1462 468.1661062093869 L 1463 468.6090417678252 L 1464 469.0504952837603 L 1465 469.490456934909 L 1466 469.9289169321819 L 1467 470.36586551990104 L 1468 470.8012929760173 L 1469 471.2351896123265 L 1470 471.6675457746851 L 1471 472.0983518432247 L 1472 472.52759823256645 L 1473 472.95527539203397 L 1474 473.38137380586625 L 1475 473.8058839934291 L 1476 474.2287965094262 L 1477 474.65010194410917 L 1478 475.0697909234867 L 1479 475.48785410953394 L 1480 475.9042822003994 L 1481 476.3190659306122 L 1482 476.7321960712885 L 1483 477.1436634303364 L 1484 477.55345885266075 L 1485 477.9615732203668 L 1486 478.36799745296304 L 1487 478.7727225075633 L 1488 479.17573937908764 L 1489 479.57703910046337 L 1490 479.9766127428238 L 1491 480.37445141570754 L 1492 480.77054626725595 L 1493 481.1648884844101 L 1494 481.55746929310703 L 1495 481.94827995847487 L 1496 482.3373117850273 L 1497 482.7245561168568 L 1498 483.1100043378275 L 1499 483.4936478717666 L 1500 483.8754781826554 L 1501 484.2554867748193 L 1502 484.63366519311666 L 1503 485.0100050231269 L 1504 485.38449789133773 L 1505 485.7571354653317 L 1506 486.1279094539713 L 1507 486.4968116075836 L 1508 486.8638337181438 L 1509 487.22896761945753 L 1510 487.59220518734327 L 1511 487.9535383398123 L 1512 488.31295903724913 L 1513 488.67045928259006 L 1514 489.0260311215012 L 1515 489.3796666425553 L 1516 489.73135797740827 L 1517 490.0810973009736 L 1518 490.428876831597 L 1519 490.77468883122924 L 1520 491.11852560559817 L 1521 491.46037950438046 L 1522 491.80024292137136 L 1523 492.1381082946542 L 1524 492.47396810676844 L 1525 492.80781488487685 L 1526 493.13964120093226 L 1527 493.4694396718422 L 1528 493.79720295963386 L 1529 494.12292377161657 L 1530 494.4465948605449 L 1531 494.7682090247791 L 1532 495.08775910844594 L 1533 495.40523800159775 L 1534 495.72063864037045 L 1535 496.033954007141 L 1536 496.3451771306832 L 1537 496.65430108632313 L 1538 496.96131899609304 L 1539 497.2662240288844" stroke-linecap="round" stroke-linejoin="round" stroke-miterlimit="10" stroke-width="10"/></g></svg>